<svg xmlns="http://www.w3.org/2000/svg" xmlns:xlink="http://www.w3.org/1999/xlink" width="500" zoomAndPan="magnify" viewBox="0 0 375 374.999991" height="500" preserveAspectRatio="xMidYMid meet" version="1.0"><defs><clipPath id="814e56315f"><path d="M 28.761719 21.28125 L 346.011719 21.28125 L 346.011719 353.53125 L 28.761719 353.53125 Z M 28.761719 21.28125 " clip-rule="nonzero"/></clipPath><clipPath id="d061213e0f"><path d="M 235.289062 187.5 L 253.238281 187.5 L 253.238281 205.449219 L 235.289062 205.449219 Z M 235.289062 187.5 " clip-rule="nonzero"/></clipPath><clipPath id="7570abef62"><path d="M 244.261719 187.5 C 239.304688 187.5 235.289062 191.519531 235.289062 196.476562 C 235.289062 201.433594 239.304688 205.449219 244.261719 205.449219 C 249.21875 205.449219 253.238281 201.433594 253.238281 196.476562 C 253.238281 191.519531 249.21875 187.5 244.261719 187.5 Z M 244.261719 187.5 " clip-rule="nonzero"/></clipPath><clipPath id="8530831174"><path d="M 0.289062 0.5 L 18.238281 0.5 L 18.238281 18.449219 L 0.289062 18.449219 Z M 0.289062 0.5 " clip-rule="nonzero"/></clipPath><clipPath id="3e5d08cdc9"><path d="M 9.261719 0.5 C 4.304688 0.5 0.289062 4.519531 0.289062 9.476562 C 0.289062 14.433594 4.304688 18.449219 9.261719 18.449219 C 14.21875 18.449219 18.238281 14.433594 18.238281 9.476562 C 18.238281 4.519531 14.21875 0.5 9.261719 0.5 Z M 9.261719 0.5 " clip-rule="nonzero"/></clipPath><clipPath id="661e6867e9"><rect x="0" width="19" y="0" height="19"/></clipPath></defs><g clip-path="url(#814e56315f)"><path fill="#ffffff" d="M 82.195312 28.835938 L 82.195312 124.695312 L 65.3125 124.695312 C 45.871094 124.695312 28.832031 138.1875 28.832031 156.453125 L 28.832031 236.726562 C 28.832031 254.996094 45.871094 268.484375 65.3125 268.484375 L 82.195312 268.484375 L 82.195312 346.164062 C 82.195312 350.117188 85.792969 353.71875 89.75 353.71875 L 285.128906 353.71875 C 289.082031 353.71875 292.683594 350.117188 292.683594 346.164062 L 292.683594 268.484375 L 309.5625 268.484375 C 329.007812 268.484375 346.160156 255.035156 346.160156 236.726562 L 346.160156 156.453125 C 346.160156 138.144531 329.007812 124.695312 309.5625 124.695312 L 292.800781 124.695312 L 292.800781 85.265625 C 292.785156 83.238281 291.914062 81.230469 290.441406 79.835938 L 232.121094 23.40625 C 230.742188 22.074219 228.84375 21.28125 226.925781 21.28125 L 89.75 21.28125 C 85.636719 21.28125 82.285156 25.433594 82.195312 28.835938 Z M 97.304688 36.390625 L 219.253906 36.390625 L 219.253906 85.03125 C 219.253906 88.984375 222.851562 92.585938 226.808594 92.585938 L 277.691406 92.585938 L 277.691406 156.097656 L 97.304688 156.097656 Z M 234.363281 46.542969 L 266.238281 77.472656 L 234.363281 77.472656 Z M 65.3125 139.804688 L 82.195312 139.804688 L 82.195312 156.097656 L 68.261719 156.097656 C 64.273438 156.042969 60.601562 159.660156 60.601562 163.652344 C 60.601562 167.644531 64.273438 171.265625 68.261719 171.207031 L 306.613281 171.207031 C 310.605469 171.265625 314.277344 167.644531 314.277344 163.652344 C 314.277344 159.660156 310.605469 156.042969 306.613281 156.097656 L 292.800781 156.097656 L 292.800781 139.804688 L 309.5625 139.804688 C 322.246094 139.804688 331.050781 147.886719 331.050781 156.453125 L 331.050781 236.726562 C 331.050781 245.292969 322.246094 253.375 309.5625 253.375 L 292.683594 253.375 L 292.683594 234.128906 L 306.613281 234.128906 C 310.605469 234.1875 314.277344 230.566406 314.277344 226.574219 C 314.277344 222.582031 310.605469 218.964844 306.613281 219.019531 L 68.261719 219.019531 C 63.882812 219.019531 60.304688 223.316406 60.351562 226.929688 C 60.539062 230.886719 64.308594 234.316406 68.261719 234.128906 L 82.195312 234.128906 L 82.195312 253.375 L 65.3125 253.375 C 52.628906 253.375 43.945312 245.335938 43.945312 236.726562 L 43.945312 156.453125 C 43.945312 147.84375 52.628906 139.804688 65.3125 139.804688 Z M 275.917969 185.140625 C 269.511719 185.140625 264.351562 190.417969 264.351562 196.824219 C 264.351562 203.234375 269.511719 208.394531 275.917969 208.394531 C 282.328125 208.394531 287.488281 203.234375 287.488281 196.824219 C 287.488281 190.417969 282.328125 185.140625 275.917969 185.140625 Z M 97.304688 234.128906 L 277.570312 234.128906 L 277.570312 338.609375 L 97.304688 338.609375 Z M 106.925781 258.980469 C 107.078125 262.941406 110.933594 266.125 114.894531 266.125 L 259.980469 266.125 C 263.972656 266.179688 267.644531 262.558594 267.644531 258.566406 C 267.644531 254.574219 263.972656 250.957031 259.980469 251.011719 L 114.894531 251.011719 C 110.492188 251.011719 106.785156 255.34375 106.925781 258.980469 Z M 114.894531 278.753906 C 110.902344 278.699219 107.230469 282.316406 107.230469 286.308594 C 107.230469 290.300781 110.902344 293.921875 114.894531 293.867188 L 259.980469 293.867188 C 263.972656 293.921875 267.644531 290.300781 267.644531 286.308594 C 267.644531 282.316406 263.972656 278.699219 259.980469 278.753906 Z M 106.925781 314.582031 C 107.078125 318.542969 110.933594 321.726562 114.894531 321.726562 L 259.980469 321.726562 C 263.972656 321.78125 267.644531 318.164062 267.644531 314.171875 C 267.644531 310.179688 263.972656 306.558594 259.980469 306.617188 L 114.894531 306.617188 C 110.492188 306.617188 106.785156 310.945312 106.925781 314.582031 Z M 106.925781 314.582031 " fill-opacity="1" fill-rule="nonzero"/></g><g clip-path="url(#d061213e0f)"><g clip-path="url(#7570abef62)"><g transform="matrix(1, 0, 0, 1, 235, 187)"><g clip-path="url(#661e6867e9)"><g clip-path="url(#8530831174)"><g clip-path="url(#3e5d08cdc9)"><path fill="#ffffff" d="M 0.289062 0.5 L 18.238281 0.5 L 18.238281 18.449219 L 0.289062 18.449219 Z M 0.289062 0.5 " fill-opacity="1" fill-rule="nonzero"/></g></g></g></g></g></g></svg>